<svg xmlns="http://www.w3.org/2000/svg" viewBox="0 0 1249.3 346.7"><defs><style>.cls-1,.cls-17,.cls-20,.cls-22,.cls-23,.cls-25,.cls-29,.cls-30,.cls-31,.cls-33,.cls-37,.cls-38,.cls-45,.cls-50,.cls-51,.cls-57,.cls-58,.cls-60,.cls-61,.cls-7,.cls-8,.cls-9{fill:none}.cls-2{fill:#83c8c9}.cls-3{isolation:isolate}.cls-4,.cls-6{fill:#f9f3ef}.cls-5{clip-path:url(#clip-path)}.cls-34,.cls-6,.cls-7,.cls-8{stroke:#b3e0dd}.cls-17,.cls-20,.cls-22,.cls-23,.cls-25,.cls-28,.cls-29,.cls-30,.cls-31,.cls-33,.cls-34,.cls-37,.cls-38,.cls-45,.cls-50,.cls-51,.cls-57,.cls-58,.cls-6,.cls-60,.cls-61,.cls-7,.cls-8,.cls-9{stroke-miterlimit:10}.cls-17,.cls-20,.cls-22,.cls-23,.cls-25,.cls-28,.cls-29,.cls-30,.cls-33,.cls-34,.cls-37,.cls-50,.cls-57,.cls-58,.cls-6,.cls-60,.cls-7,.cls-8,.cls-9{stroke-width:2px}.cls-17,.cls-20,.cls-23,.cls-25,.cls-28,.cls-30,.cls-31,.cls-38,.cls-50,.cls-51,.cls-57,.cls-58,.cls-60,.cls-8,.cls-9{stroke-linecap:round}.cls-9{stroke:#0c9299}.cls-10{fill:#1d797e}.cls-11{clip-path:url(#clip-path-2)}.cls-12{fill:#0c9299}.cls-13{clip-path:url(#clip-path-3)}.cls-14{clip-path:url(#clip-path-4)}.cls-15{clip-path:url(#clip-path-5)}.cls-16{clip-path:url(#clip-path-6)}.cls-17{stroke:#1d797e}.cls-18{fill:#b3e0dd}.cls-19{fill:#82c8c9}.cls-20,.cls-23{stroke:#4a96ae}.cls-21{fill:#93cfcb}.cls-22{stroke:#85c6c0}.cls-23{opacity:.42;mix-blend-mode:multiply}.cls-24,.cls-34{fill:#f4ede9}.cls-25,.cls-37{stroke:#6bb4b9}.cls-26{fill:#f36f62}.cls-27{fill:#c65c55}.cls-28{fill:#b4e0dd;stroke:#6ab4b9}.cls-29,.cls-30,.cls-31{stroke:#f9f3ef}.cls-32{fill:#4a96ae}.cls-33{stroke:#c65c55}.cls-35{clip-path:url(#clip-path-7)}.cls-36{fill:#6db5b5;opacity:.82}.cls-38{stroke:#176666;stroke-width:10px}.cls-39{clip-path:url(#clip-path-8)}.cls-40{fill:#176666}.cls-41{fill:#00aeb2}.cls-42{fill:#019b9b}.cls-43{fill:#e2d9d3}.cls-44{clip-path:url(#clip-path-9)}.cls-45{stroke:#83c8c9}.cls-46{fill:#4c4b4c}.cls-47{fill:#f26f61}.cls-48{fill:#f2cea9}.cls-49{clip-path:url(#clip-path-10)}.cls-50{stroke:#00aeb2}.cls-51{stroke:#4c4b4c;stroke-width:1.5px}.cls-52{fill:#3d3d3d}.cls-53{clip-path:url(#clip-path-11)}.cls-54{fill:#4d4b4d}.cls-55{clip-path:url(#clip-path-12)}.cls-56{fill:#4c4a4c}.cls-57{stroke:#f4ede9}.cls-58{stroke:#bb5745}.cls-59{clip-path:url(#clip-path-13)}.cls-60{stroke:#1a797e}.cls-61{stroke:#00aeb3;stroke-width:3px}.cls-62{fill:#00aeb3}.cls-63{clip-path:url(#clip-path-14)}.cls-64{clip-path:url(#clip-path-15)}.cls-65{clip-path:url(#clip-path-16)}.cls-66{clip-path:url(#clip-path-17)}.cls-67{clip-path:url(#clip-path-18)}.cls-68{clip-path:url(#clip-path-19)}.cls-69{clip-path:url(#clip-path-20)}</style><clipPath id="clip-path"><path id="BG" class="cls-1" d="M0-14.21h1250V346.7H0z"/></clipPath><clipPath id="clip-path-2"><path class="cls-1" d="M624.68 217.42a10.57 10.57 0 0 0-2.33-6.71 4.79 4.79 0 0 1-1-3.82 19.51 19.51 0 0 0 .25-3.14c0-5.88-2.52-10.64-5.63-10.64s-5.63 4.76-5.63 10.64a19.51 19.51 0 0 0 .25 3.14 4.79 4.79 0 0 1-1 3.82 10.57 10.57 0 0 0-2.33 6.71 10.77 10.77 0 0 0 1.43 5.41 4.9 4.9 0 0 1 .57 3.6 15.41 15.41 0 0 0-.41 3.57c0 5.88 3.19 10.64 7.13 10.64s7.13-4.76 7.13-10.64a15.41 15.41 0 0 0-.41-3.57 4.9 4.9 0 0 1 .57-3.6 10.77 10.77 0 0 0 1.41-5.41z"/></clipPath><clipPath id="clip-path-3"><path class="cls-1" d="M825.71 249.48a10.57 10.57 0 0 0-2.33-6.71 4.79 4.79 0 0 1-1-3.82 19.51 19.51 0 0 0 .25-3.14c0-5.88-2.52-10.64-5.63-10.64s-5.63 4.76-5.63 10.64a19.51 19.51 0 0 0 .25 3.14 4.79 4.79 0 0 1-1 3.82 10.57 10.57 0 0 0-2.33 6.71 10.77 10.77 0 0 0 1.43 5.41 4.9 4.9 0 0 1 .57 3.6 15.41 15.41 0 0 0-.41 3.57c0 5.88 3.19 10.64 7.13 10.64s7.13-4.76 7.13-10.64a15.41 15.41 0 0 0-.41-3.57 4.9 4.9 0 0 1 .57-3.6 10.77 10.77 0 0 0 1.41-5.41z"/></clipPath><clipPath id="clip-path-4"><path class="cls-1" d="M846.71 217.42a10.57 10.57 0 0 0-2.33-6.71 4.79 4.79 0 0 1-1-3.82 19.51 19.51 0 0 0 .25-3.14c0-5.88-2.52-10.64-5.63-10.64s-5.63 4.76-5.63 10.64a19.51 19.51 0 0 0 .25 3.14 4.79 4.79 0 0 1-1 3.82 10.57 10.57 0 0 0-2.33 6.71 10.77 10.77 0 0 0 1.43 5.41 4.9 4.9 0 0 1 .57 3.6 15.41 15.41 0 0 0-.41 3.57c0 5.88 3.19 10.64 7.13 10.64s7.13-4.76 7.13-10.64a15.41 15.41 0 0 0-.41-3.57 4.9 4.9 0 0 1 .57-3.6 10.77 10.77 0 0 0 1.41-5.41z"/></clipPath><clipPath id="clip-path-5"><path class="cls-1" d="M574.71 217.42a10.57 10.57 0 0 0-2.33-6.71 4.79 4.79 0 0 1-1-3.82 19.51 19.51 0 0 0 .25-3.14c0-5.88-2.52-10.64-5.63-10.64s-5.63 4.76-5.63 10.64a19.51 19.51 0 0 0 .25 3.14 4.79 4.79 0 0 1-1 3.82 10.57 10.57 0 0 0-2.33 6.71 10.77 10.77 0 0 0 1.43 5.41 4.9 4.9 0 0 1 .57 3.6 15.41 15.41 0 0 0-.41 3.57c0 5.88 3.19 10.64 7.13 10.64s7.13-4.76 7.13-10.64a15.41 15.41 0 0 0-.41-3.57 4.9 4.9 0 0 1 .57-3.6 10.77 10.77 0 0 0 1.41-5.41z"/></clipPath><clipPath id="clip-path-6"><path class="cls-1" d="M524.24 217.42a10.57 10.57 0 0 0-2.33-6.71 4.79 4.79 0 0 1-1-3.82 19.51 19.51 0 0 0 .25-3.14c0-5.88-2.52-10.64-5.63-10.64s-5.63 4.76-5.63 10.64a19.51 19.51 0 0 0 .25 3.14 4.79 4.79 0 0 1-1 3.82 10.57 10.57 0 0 0-2.33 6.71 10.77 10.77 0 0 0 1.43 5.41 4.9 4.9 0 0 1 .57 3.6 15.41 15.41 0 0 0-.41 3.57c0 5.88 3.19 10.64 7.13 10.64s7.13-4.76 7.13-10.64a15.41 15.41 0 0 0-.41-3.57 4.9 4.9 0 0 1 .57-3.6 10.77 10.77 0 0 0 1.41-5.41z"/></clipPath><clipPath id="clip-path-7"><path id="HILL" class="cls-1" d="M-192.86 185.55C31.76 144.18 274.55 157.64 482.71 223l119 37.37C769.46 313 956 340.55 1145.36 340.55H1480V404H-192.86z"/></clipPath><clipPath id="clip-path-8"><path class="cls-1" d="M408.7 232.18c0-21.6-11.94-39.3-27.13-41V191H134.26v82.35h247.3v-.15c15.19-1.72 27.14-19.42 27.14-41.02z"/></clipPath><clipPath id="clip-path-9"><path class="cls-2" d="M297.69 107l-4.27 6.83a27.12 27.12 0 0 1-11.59 11.36 53.35 53.35 0 0 0-26.28 30.34l-.64 1.87h43.54l6.81-9.65A49.86 49.86 0 0 0 314.4 119v-12.17z"/></clipPath><clipPath id="clip-path-10"><path class="cls-1" d="M355.64 83.67L343 81l-.17.26c-1.39-8.28-9.49-14.65-19.31-14.65s-18 6.4-19.33 14.72l-5.1 5.47-10.64 10.61-12 7.16L317.1 141l7.65-17.05 8.43-12 5.83-6a13.34 13.34 0 0 1 7.56-2.46l3.79.58a2.17 2.17 0 0 0 .73-4.28l-10.59-2a1.81 1.81 0 1 1 .69-3.55l12 2.34a4.87 4.87 0 0 0 5.62-3.44l.8-2.81a5.28 5.28 0 0 0-3.97-6.66z"/></clipPath><clipPath id="clip-path-11"><path class="cls-1" d="M224.34 70.25h14.36v13.32a7.18 7.18 0 0 1-7.18 7.18 7.18 7.18 0 0 1-7.18-7.18V70.25z"/></clipPath><clipPath id="clip-path-12"><path class="cls-1" d="M233.13 78.65A19.17 19.17 0 0 1 214 59.48V34.29a19.17 19.17 0 0 1 19.17-19.17h1.59a19.17 19.17 0 0 1 19.17 19.17v25.19a19.17 19.17 0 0 1-19.17 19.17"/></clipPath><clipPath id="clip-path-13"><path class="cls-1" d="M88.42 149.67a39.27 39.27 0 0 0-8.64-24.93A17.8 17.8 0 0 1 76 110.55a72.47 72.47 0 0 0 1-11.65c0-21.82-9.36-39.51-20.9-39.51S35.16 77.08 35.16 98.9a72.47 72.47 0 0 0 .93 11.66 17.8 17.8 0 0 1-3.73 14.19 39.27 39.27 0 0 0-8.64 24.93A40 40 0 0 0 29 169.76a18.2 18.2 0 0 1 2.12 13.37 57.21 57.21 0 0 0-1.52 13.27c0 21.82 11.85 39.51 26.47 39.51s26.47-17.69 26.47-39.51A57.21 57.21 0 0 0 81 183.13a18.2 18.2 0 0 1 2.12-13.37 40 40 0 0 0 5.3-20.09z"/></clipPath><clipPath id="clip-path-14"><path class="cls-1" d="M1047.77 306.49s6-1.16 12.62 4.63a13.92 13.92 0 0 1 4.75 13.2s-9.26.93-13.89-5.9-3.48-11.93-3.48-11.93z"/></clipPath><clipPath id="clip-path-15"><path class="cls-1" d="M1047.77 286.3s6-1.16 12.62 4.63a13.92 13.92 0 0 1 4.75 13.2s-9.26.93-13.89-5.9-3.48-11.93-3.48-11.93z"/></clipPath><clipPath id="clip-path-16"><path class="cls-1" d="M1048.83 268.2s5.66-1.09 11.86 4.35a13.09 13.09 0 0 1 4.46 12.4s-8.7.87-13.06-5.55-3.26-11.2-3.26-11.2z"/></clipPath><clipPath id="clip-path-17"><path class="cls-1" d="M1067.92 248.37s4.83 3.14 5.52 11.36a13.09 13.09 0 0 1-5.39 12s-6.87-5.41-5.56-13.05 5.43-10.31 5.43-10.31z"/></clipPath><clipPath id="clip-path-18"><path class="cls-1" d="M1088.2 306.49s-6-1.16-12.62 4.63a13.92 13.92 0 0 0-4.75 13.2s9.26.93 13.89-5.9 3.48-11.93 3.48-11.93z"/></clipPath><clipPath id="clip-path-19"><path class="cls-1" d="M1088.2 286.3s-6-1.16-12.62 4.63a13.92 13.92 0 0 0-4.75 13.2s9.26.93 13.89-5.9 3.48-11.93 3.48-11.93z"/></clipPath><clipPath id="clip-path-20"><path class="cls-1" d="M1087.14 268.2s-5.66-1.09-11.86 4.35a13.09 13.09 0 0 0-4.46 12.4s8.7.87 13.06-5.55 3.26-11.2 3.26-11.2z"/></clipPath></defs><title>FOOTER_ILLUST</title><g class="cls-3"><g id="CANADIAN_CITIES"><path id="BG-2" data-name="BG" class="cls-4" d="M0 0h1250v346.7H0z"/><g class="cls-5" id="ILLUST"><g id="CITY"><path class="cls-6" d="M957 132h65.5v214.7H957z"/><path class="cls-7" d="M548.6 127.98h45v154.49h-45z"/><path class="cls-6" d="M615.97 232.25H836M771.5 173.33h7.12V269h-7.12z"/><path class="cls-7" d="M671 179.61l-55.03 52.08M678.12 179.61l51.33 52.64M771.77 179.61l-55.03 52.08M778.89 179.61l51.33 52.64"/><path class="cls-6" d="M671 173.59h7.12v82.26H671zM615.97 240.64l222.03-1.5"/><path class="cls-7" d="M690.41 192.22v40.03M708.29 210.55v21.7M739.08 210.55v21.7M758.45 192.22v40.03M794.3 195.42v36.83M656.43 193.4v38.13M342.67 145.33h56v201.36h-56z"/><path class="cls-6" d="M371.7 163.33h52.97v183.36H371.7zM495.33 381.7V189H518v-21.33h46V381.7h-68.67zM-19.33 71.63H54v221.36h-73.33z"/><path class="cls-6" d="M434 117.26h62.6v259.43H434zM437.9 99.35v9.2h58.17V85L437.9 99.35z"/><path class="cls-7" d="M448.41 117.26v231.86"/><path class="cls-6" d="M864.58 164.59h75.87v159.65h-75.87zM875.96 145.66h52.63v18.92h-52.63zM900.2 128.5h4.5a15.22 15.22 0 0 1 15.22 15.22v1.94H885v-1.94a15.22 15.22 0 0 1 15.2-15.22z"/><path class="cls-6" d="M883.49 176.36h10.81v14.24h-10.81zM902.52 176.36h10.81v14.24h-10.81zM920.78 176.36h10.81v14.24h-10.81zM883.49 197.6h10.81v14.24h-10.81zM902.52 197.6h10.81v14.24h-10.81zM920.78 197.6h10.81v14.24h-10.81zM883.49 218.84h10.81v14.24h-10.81zM902.52 218.84h10.81v14.24h-10.81zM920.78 218.84h10.81v14.24h-10.81zM46.15 93.6h81.4v261.08h-81.4z"/><path class="cls-7" d="M94.76 74.24h23.81V93.6H94.76zM85.07 74.24h43.19l11.63-21.04H73.44l11.63 21.04zM90.88 44.33h30.46v8.86H90.88z"/><path class="cls-8" d="M106.11 27.5v16.83"/><path class="cls-7" d="M77.39 60.35h59.18M81.89 68.5h49.18"/><path class="cls-6" d="M62.64 104.14h12.4v16.34h-12.4zM84.47 104.14h12.4v16.34h-12.4zM105.41 104.14h12.4v16.34h-12.4zM62.64 128.51h12.4v16.34h-12.4zM84.47 128.51h12.4v16.34h-12.4zM105.41 128.51h12.4v16.34h-12.4zM62.64 152.88h12.4v16.34h-12.4zM84.47 152.88h12.4v16.34h-12.4zM105.41 152.88h12.4v16.34h-12.4zM524 216h57v143.7h-57zM528.75 204.25h27V216h-27zM150.7 107.6h51.81V199H150.7z"/></g><g id="TREE_LINE"><g id="TREE"><path class="cls-9" d="M615.97 240.64v14.3"/><path class="cls-10" d="M624.68 217.42a10.57 10.57 0 0 0-2.33-6.71 4.79 4.79 0 0 1-1-3.82 19.51 19.51 0 0 0 .25-3.14c0-5.88-2.52-10.64-5.63-10.64s-5.63 4.76-5.63 10.64a19.51 19.51 0 0 0 .25 3.14 4.79 4.79 0 0 1-1 3.82 10.57 10.57 0 0 0-2.33 6.71 10.77 10.77 0 0 0 1.43 5.41 4.9 4.9 0 0 1 .57 3.6 15.41 15.41 0 0 0-.41 3.57c0 5.88 3.19 10.64 7.13 10.64s7.13-4.76 7.13-10.64a15.41 15.41 0 0 0-.41-3.57 4.9 4.9 0 0 1 .57-3.6 10.77 10.77 0 0 0 1.41-5.41z"/><g class="cls-11"><path class="cls-12" d="M595.54 176.41h20.43v83.79h-20.43z"/></g></g><g id="TREE-2" data-name="TREE"><path class="cls-9" d="M817 272.71V287"/><path class="cls-10" d="M825.71 249.48a10.57 10.57 0 0 0-2.33-6.71 4.79 4.79 0 0 1-1-3.82 19.51 19.51 0 0 0 .25-3.14c0-5.88-2.52-10.64-5.63-10.64s-5.63 4.76-5.63 10.64a19.51 19.51 0 0 0 .25 3.14 4.79 4.79 0 0 1-1 3.82 10.57 10.57 0 0 0-2.33 6.71 10.77 10.77 0 0 0 1.43 5.41 4.9 4.9 0 0 1 .57 3.6 15.41 15.41 0 0 0-.41 3.57c0 5.88 3.19 10.64 7.13 10.64s7.13-4.76 7.13-10.64a15.41 15.41 0 0 0-.41-3.57 4.9 4.9 0 0 1 .57-3.6 10.77 10.77 0 0 0 1.41-5.41z"/><g class="cls-13"><path class="cls-12" d="M796.57 208.47H817v83.79h-20.43z"/></g></g><g id="TREE-3" data-name="TREE"><path class="cls-9" d="M838 240.64v14.3"/><path class="cls-10" d="M846.71 217.42a10.57 10.57 0 0 0-2.33-6.71 4.79 4.79 0 0 1-1-3.82 19.51 19.51 0 0 0 .25-3.14c0-5.88-2.52-10.64-5.63-10.64s-5.63 4.76-5.63 10.64a19.51 19.51 0 0 0 .25 3.14 4.79 4.79 0 0 1-1 3.82 10.57 10.57 0 0 0-2.33 6.71 10.77 10.77 0 0 0 1.43 5.41 4.9 4.9 0 0 1 .57 3.6 15.41 15.41 0 0 0-.41 3.57c0 5.88 3.19 10.64 7.13 10.64s7.13-4.76 7.13-10.64a15.41 15.41 0 0 0-.41-3.57 4.9 4.9 0 0 1 .57-3.6 10.77 10.77 0 0 0 1.41-5.41z"/><g class="cls-14"><path class="cls-12" d="M817.57 176.41H838v83.79h-20.43z"/></g></g><g id="TREE-4" data-name="TREE"><path class="cls-9" d="M566 240.64v14.3"/><path class="cls-10" d="M574.71 217.42a10.57 10.57 0 0 0-2.33-6.71 4.79 4.79 0 0 1-1-3.82 19.51 19.51 0 0 0 .25-3.14c0-5.88-2.52-10.64-5.63-10.64s-5.63 4.76-5.63 10.64a19.51 19.51 0 0 0 .25 3.14 4.79 4.79 0 0 1-1 3.82 10.57 10.57 0 0 0-2.33 6.71 10.77 10.77 0 0 0 1.43 5.41 4.9 4.9 0 0 1 .57 3.6 15.41 15.41 0 0 0-.41 3.57c0 5.88 3.19 10.64 7.13 10.64s7.13-4.76 7.13-10.64a15.41 15.41 0 0 0-.41-3.57 4.9 4.9 0 0 1 .57-3.6 10.77 10.77 0 0 0 1.41-5.41z"/><g class="cls-15"><path class="cls-12" d="M545.57 176.41H566v83.79h-20.43z"/></g></g><g id="TREE-5" data-name="TREE"><path class="cls-9" d="M515.53 240.64v14.3"/><path class="cls-10" d="M524.24 217.42a10.57 10.57 0 0 0-2.33-6.71 4.79 4.79 0 0 1-1-3.82 19.51 19.51 0 0 0 .25-3.14c0-5.88-2.52-10.64-5.63-10.64s-5.63 4.76-5.63 10.64a19.51 19.51 0 0 0 .25 3.14 4.79 4.79 0 0 1-1 3.82 10.57 10.57 0 0 0-2.33 6.71 10.77 10.77 0 0 0 1.43 5.41 4.9 4.9 0 0 1 .57 3.6 15.41 15.41 0 0 0-.41 3.57c0 5.88 3.19 10.64 7.13 10.64s7.13-4.76 7.13-10.64a15.41 15.41 0 0 0-.41-3.57 4.9 4.9 0 0 1 .57-3.6 10.77 10.77 0 0 0 1.41-5.41z"/><g class="cls-16"><path class="cls-12" d="M495.09 176.41h20.43v83.79h-20.43z"/></g></g></g><g id="WATER"><path id="WATER-2" data-name="WATER" class="cls-12" d="M502.97 248.07h503.97v98.63H502.97z"/><path class="cls-17" d="M593.59 257.82H693M702 257.82h9.5M693 271h63"/></g><g id="SHOP_01"><path class="cls-18" d="M843.11 179.98h181.13v114.68H843.11z"/><path class="cls-19" d="M958.13 180.04h65.19v114.51h-65.19z"/><path class="cls-20" d="M991.45 221.82h14.12M996.75 227.7h14.12M999.89 221.82v5.88M1005.57 227.7v5.89M999.89 233.59h10.98M971.17 239.3H990M975.68 245.4h18.83M980.58 239.3v6.1M987.45 245.4v6.1M982.35 251.5h10.4M972.58 209.37h15.89M976.11 204.07H992M980.52 209.37v-5.3"/><path class="cls-18" d="M836.88 174.07h121.25v5.97H836.88z"/><path class="cls-21" d="M958.13 174.07h65.19v5.97h-65.19z"/><path class="cls-22" d="M843.11 179.98h115.02"/><path class="cls-23" d="M958.13 180.04h65.19"/><path class="cls-24" d="M855 208.33h44v51.17h-44z"/><path class="cls-25" d="M850.67 208.33h44v51.17h-44zM843.11 179.98V285"/><path class="cls-26" d="M843.67 205.67L830.33 221h69.34v-15.33h-56z"/><path class="cls-27" d="M899.67 205.67l-12.37 15.17h12.37v-15.17z"/><rect class="cls-25" x="852.75" y="266.75" width="15.5" height="4.25" rx="2.12" ry="2.12"/><path class="cls-25" d="M854.87 271v15M865.87 271v15"/><rect class="cls-25" x="874.75" y="266.75" width="15.5" height="4.25" rx="2.12" ry="2.12"/><path class="cls-25" d="M876.87 271v15M887.87 271v15M854.87 277.33h11M877 277.33h10.87"/><path class="cls-24" d="M914.67 221h35v65.16h-35z"/><path class="cls-25" d="M910.67 221h35v65.16h-35zM925.67 221.16v65M931.33 248.16v8.66"/><path class="cls-26" d="M905.33 205.67h44.33V221h-44.33z"/><path class="cls-8" d="M863.75 231.5l17.5 18M871.25 229.75l8.25 9"/></g><g id="SHOP_02"><path class="cls-26" d="M1015.95 79.48H1130V120h-114.05z"/><path class="cls-27" d="M1130 79.48h12v38.79h-12z"/><path class="cls-18" d="M986 126.67h265.33v168H986z"/><path class="cls-19" d="M1154.5 126.75h95.5V294.5h-95.5z"/><path class="cls-24" d="M1048.67 175.33h90v81h-90z"/><path class="cls-25" d="M999.33 196.67h35.33v97h-35.33zM1015.56 175.33h3a16 16 0 0 1 16 16h-35a16 16 0 0 1 16-16z"/><path class="cls-24" d="M1005.63 204.75h22.38V256h-22.38z"/><path class="cls-26" d="M977 153.67h161.67v6.67H977z"/><path class="cls-27" d="M1121.31 153.67h17.35v6.67h-17.35z"/><path class="cls-18" d="M1002.25 211.75h29.5v3.75h-29.5zM1045.4 187.9h96.17v3.75h-96.17z"/><path class="cls-18" transform="rotate(-90 1089 183.27)" d="M1080.75 181.4h16.5v3.75h-16.5z"/><path class="cls-28" d="M986 279.17h53.33v8.16H986zM993.33 270.33h46v7.74h-46z"/><path class="cls-25" d="M1043.67 175.33h90v81h-90z"/><path class="cls-20" d="M1203.31 187.95H1224M1211.07 196.57h20.69M1215.67 187.95v8.62M1224 196.57v8.62M1215.67 205.19h16.09M1179.45 239.93h27.59M1186.06 248.86h27.59M1193.25 239.93v8.93M1203.31 248.86v8.94M1195.84 257.8h15.23M1178.59 159.46h23.28M1183.77 151.7h23.27M1190.23 159.46v-7.76"/><path class="cls-18" d="M976.88 118h177.62v8.75H976.88z"/><path class="cls-21" d="M1154.5 118h95.5v8.75h-95.5z"/><path class="cls-22" d="M986 126.67h168.5"/><path class="cls-23" d="M1154.5 126.75h95.5"/><path class="cls-25" d="M1043.67 261.5h94.08"/><path class="cls-8" d="M1067.94 205.32L1105 239.5M1088.1 215.79l21.65 19.97"/><circle class="cls-29" cx="1047.6" cy="93.58" r="4.75"/><path class="cls-30" d="M1060.74 88.82v9.51M1066.91 88.82h-6.17M1066.28 93.58h-5.54M1074.73 88.82v9.51M1080.9 88.82h-6.17M1080.27 93.58h-5.54M1088.99 88.82v9.51M1095.17 88.82h-6.18M1094.53 93.58h-5.54M1095.17 98.33h-6.18M1104.02 88.82v9.51M1110.2 88.82h-6.18M1109.57 93.58h-5.55M1110.2 98.33h-6.18"/><circle class="cls-29" cx="1031.23" cy="93.58" r="4.75"/><path class="cls-26" d="M1032.85 92.1h6.36v3.72h-6.36z"/><path class="cls-31" d="M1026.48 108h33.27M1080.27 108h29.93"/><path class="cls-4" d="M1066.4 111h6.4a.39.39 0 0 0 .36-.56l-.29-.61 3.3-2.38a.39.39 0 0 0-.06-.67l-.15-.08a.39.39 0 0 1-.21-.46l.41-1.5a.39.39 0 0 0-.47-.49l-1.26.31a.39.39 0 0 1-.48-.29v-.21a.39.39 0 0 0-.68-.18l-1.4 1.54a.06.06 0 0 1-.11-.05l.5-3.37a.39.39 0 0 0-.61-.39l-.3.2a.39.39 0 0 1-.57-.15l-.82-1.61a.39.39 0 0 0-.71 0l-.82 1.68a.39.39 0 0 1-.59.14l-.29-.22a.39.39 0 0 0-.62.4l.74 3.35a.06.06 0 0 1-.11.06l-1.54-1.65a.39.39 0 0 0-.67.18v.21a.39.39 0 0 1-.45.3l-1.32-.23a.39.39 0 0 0-.45.5l.39 1.37a.39.39 0 0 1-.27.49.39.39 0 0 0-.15.68l3.19 2.64-.19.56a.39.39 0 0 0 .3.49z"/><path class="cls-31" d="M1069.6 110.39v3.21"/></g><g id="POST_BOX"><path class="cls-26" d="M1172.11 216.23h26.95V286h-26.95z"/><path class="cls-27" d="M1199.06 216.23l14.37 14.37V286h-14.37v-69.77z"/><path class="cls-30" d="M1174.78 221.13h20.72"/><path class="cls-32" d="M1174.78 233.18h20.76v7.81h-20.76z"/><path class="cls-30" d="M1175.55 237.09h19.17"/><path class="cls-33" d="M1175.55 227.46h19.17v37.26h-19.17zM1174.78 251.11h20.72"/></g><g id="ROAD"><path class="cls-34" d="M671.59 285H1258v48H671.59z"/><path class="cls-34" d="M646 294h604v52.7H646z"/><path class="cls-25" d="M1132.67 309H1226M1002.67 309h-49.34M933.33 309h-16"/></g><path id="HILL-2" data-name="HILL" class="cls-19" d="M-192.86 185.55C31.76 144.18 274.55 157.64 482.71 223l119 37.37C769.46 313 956 340.55 1145.36 340.55H1480V404H-192.86z"/><g class="cls-35"><path class="cls-36" d="M134.26 273.36L314.61 386h1000.28V166.24H217.36l-83.1 107.12z"/></g><g id="LOG"><ellipse class="cls-10" cx="379.12" cy="232.18" rx="29.57" ry="41.18"/><path class="cls-10" d="M134.26 191.01h247.31v82.35H134.26z"/><ellipse class="cls-18" cx="134.26" cy="232.18" rx="29.57" ry="41.18"/><ellipse class="cls-37" cx="131.68" cy="233.34" rx="16.78" ry="27.44"/><ellipse class="cls-37" cx="131.52" cy="234.13" rx="6.54" ry="11.8"/><path class="cls-18" d="M133.22 213.89l12.1-13.55 11.38 19.85-13.8 8.47-9.68-14.77z"/><path class="cls-38" d="M351.61 163.52l-24.71 31.6"/><g class="cls-39"><path class="cls-40" d="M211.33 201.63l197.34 109.7.66-169.33-198 59.63z"/></g><path class="cls-25" d="M229.71 209.54h107.06M192.65 253.29h37.06M333.68 232.18h45.44"/></g><g id="TOLLER"><path class="cls-41" d="M332.37 125.64l-3.17 67.64h-8.66l-6.14-61.99 17.97-5.65z"/><path class="cls-42" d="M272.91 162.09v38.29H316a9.3 9.3 0 0 0-9.3-9.3h-7.24V186z"/><path class="cls-43" d="M329.2 106.83v17.93a84.89 84.89 0 0 1-33.74 67.75l-5.28 4-20.67-1.14 39-88.53z"/><path class="cls-2" d="M297.69 107l-4.27 6.83a27.12 27.12 0 0 1-11.59 11.36 53.35 53.35 0 0 0-26.28 30.34l-.64 1.87h43.54l6.81-9.65A49.86 49.86 0 0 0 314.4 119v-12.17z"/><circle class="cls-2" cx="278.34" cy="163.63" r="24.24"/><path class="cls-2" d="M254.09 162.09v19.43A18.86 18.86 0 0 0 273 200.38h24.2a9.3 9.3 0 0 0-9.3-9.3h-7.24V186z"/><path class="cls-43" d="M334.54 109a79.76 79.76 0 0 1-31.1 77.61l-9 6.67L327.52 109z"/><path class="cls-41" d="M320.54 193.28h9.56a6.37 6.37 0 0 1 6.37 6.37v.72h-15.93v-7.1.01z"/><path class="cls-2" d="M297.69 107l-4.27 6.83a27.12 27.12 0 0 1-11.59 11.36 53.35 53.35 0 0 0-26.28 30.34l-.64 1.87h43.54l6.81-9.65A49.86 49.86 0 0 0 314.4 119v-12.17z"/><g class="cls-44"><path class="cls-2" d="M278.34 80.36l3.09 25.44a102.16 102.16 0 0 0 26.35 57L336.31 90z"/></g><path class="cls-2" d="M304.48 84.88l-1.9 9.96-4.89 12.13 16.27 13.74 11.14-8.91 1.55-10.86-22.17-16.06"/><path class="cls-45" d="M305.06 80l-.72 6c-.47 3.9-2.91 13.07-7.15 21.76s-12 15.86-12 15.86"/><path class="cls-10" d="M315.54 65.21l7.05 1.43-5.99 3.3-1.06-4.73z"/><circle class="cls-41" cx="330.94" cy="77.27" r="12.93"/><ellipse class="cls-2" cx="323.54" cy="83.78" rx="19.55" ry="17.16"/><path class="cls-46" d="M338.23 92l-.81 7.77 14.46 2.53a9 9 0 0 0 1.19-7.62l-.09-.29z"/><path id="TONGUE" class="cls-47" d="M341.24 100.41a.09.09 0 0 1-.06-.16c1-.8 5.47-4 10.11-2.92 4.21 1 7.08 8.36 4.78 8.68s-5.08-5.08-5.08-5.08l-.32-.22a2.79 2.79 0 0 0-1.65-.47z"/><path class="cls-2" d="M343 81l12.62 2.66a5.28 5.28 0 0 1 4 6.62l-.8 2.81a4.87 4.87 0 0 1-5.62 3.44l-12-2.34a1.81 1.81 0 0 0-2.11 1.38 1.81 1.81 0 0 0 1.42 2.17l10.59 2a2.17 2.17 0 0 1 1.72 2.54 2.17 2.17 0 0 1-2.46 1.74L330 101z"/><path class="cls-48" d="M337.41 107.23a13.36 13.36 0 0 1 10.89-3.64l-7.3-4.3z"/><g class="cls-49"><path class="cls-43" d="M351 75.47v6.78a5.77 5.77 0 0 1-5.75 5.75h-12.64a2.58 2.58 0 0 1-2.61-2.55 2.8 2.8 0 0 0-2.8-2.8h-7.86a2.8 2.8 0 0 0-2.54 4L323 100a13.21 13.21 0 0 1-3.08 15.31l-5.28 5.43 22.78 15.94L370.76 86z"/><path class="cls-47" d="M354.13 83.35a4 4 0 0 0 2.74 4.88l4.72 1.39 1.49-5.08z"/></g><ellipse class="cls-43" cx="332.44" cy="76.79" rx="2.94" ry="2.22" transform="rotate(-21.41 332.38 76.778)"/><path class="cls-2" d="M319.57 97.12h3.08a9.79 9.79 0 0 1 9.79 9.79A11.48 11.48 0 0 1 321 118.39a3 3 0 0 0-2.95 2.95v14c0 9.81-5.91 19-17.43 19l4.49-44.3z"/><path class="cls-41" d="M317.42 66.12a1.69 1.69 0 0 0-2.49-.64l-9.74 6.82c-5 3.48-6.66 11.3-3.75 17.36l2.3 4.77c3.29 6.84 10.44 9.14 16 5.17 5.7-4 7.6-13.05 4.22-20z"/><path class="cls-2" d="M317.9 137.61l-1.97 55.67h-8.66l-6.14-61.99 16.77 6.32z"/><path class="cls-2" d="M307.27 193.28h9.56a6.37 6.37 0 0 1 6.37 6.37v.72h-15.93v-7.1.01z"/><path class="cls-47" d="M298.42 104l2.24 1.43a57.65 57.65 0 0 0 34.62 8.92l.51 8h-1.71a70.45 70.45 0 0 1-38.92-11.72z"/><path class="cls-50" d="M272.09 157.74v5.84M275.97 155.41v5.84M301.03 130.09v5.84"/><path class="cls-51" d="M333.63 83a3.55 3.55 0 0 1 4.87 0"/></g><g id="GIRL"><rect class="cls-46" x="217.3" y="9.72" width="20.69" height="11.67" rx="5.75" ry="5.75"/><path class="cls-42" d="M218.71 82.5h21a16.14 16.14 0 0 1 16.14 16.14v84.48h-37.1V82.5h-.04z"/><path class="cls-43" d="M247.14 157.75l32.28 21.48-3.46 8.52h-28.82v-30z"/><path class="cls-27" d="M242.37 167.29l73.14 27.84a10.74 10.74 0 0 1 4.49 17.58l-56.84 60.39-8.45-6.17 40.93-56.84L235.87 188z"/><path class="cls-52" d="M245.75 167.13l27.75 12-20.25 8.62-7.5-20.62z"/><path class="cls-47" d="M217.36 171.66l74.27 9.05a14.36 14.36 0 0 1 12.49 16.14l-10.43 78.51h-12l3.14-66.92-72.27-11.04z"/><path class="cls-47" d="M249.14 197.4h-36.58a24.27 24.27 0 0 1-24.27-24.27v-15.34l60.85-.24z"/><path class="cls-46" d="M268.27 177.87l-19.13-2.33v-17.75h-32.89L229.43 200l34.7 5.31a31.81 31.81 0 0 1 3.74-26.81z"/><circle class="cls-27" cx="233.92" cy="181.4" r="7.86"/><rect class="cls-46" x="179.31" y="2.6" width="50.16" height="43.11" rx="10.85" ry="10.85"/><rect class="cls-46" x="195.22" y="34.75" width="23.34" height="19.8" rx="7.95" ry="7.95"/><path class="cls-43" d="M202.17 82.26h33.09a13.88 13.88 0 0 1 13.88 13.88v61.64h-60.85V96.15a13.88 13.88 0 0 1 13.88-13.88z"/><path class="cls-43" d="M235.87 94.93h4.46A18.07 18.07 0 0 1 258.4 113a18.07 18.07 0 0 1-18.07 18.07h-4.46V94.93z"/><path class="cls-41" d="M187.31 96.69l-11.53 84.81 18.19 3.25 14.4-84.46"/><path class="cls-47" d="M224.34 70.25h14.36v13.32a7.18 7.18 0 0 1-7.18 7.18 7.18 7.18 0 0 1-7.18-7.18V70.25z"/><g class="cls-53"><ellipse class="cls-54" cx="232.18" cy="73.8" rx="12.98" ry="9.47"/></g><path class="cls-41" d="M202.12 82.26h12.51a14.81 14.81 0 0 1 14.81 14.81v104.57h-42.13V97.07a14.81 14.81 0 0 1 14.81-14.81z"/><path class="cls-47" d="M233.13 78.65A19.17 19.17 0 0 1 214 59.48V34.29a19.17 19.17 0 0 1 19.17-19.17h1.59a19.17 19.17 0 0 1 19.17 19.17v25.19a19.17 19.17 0 0 1-19.17 19.17"/><circle class="cls-47" cx="213.95" cy="53.28" r="5.25"/><g class="cls-55"><path class="cls-46" d="M262.81 30.65L231 30.22a9.65 9.65 0 0 0-10 8.9l-.2 4.47H202V7.65h60.86z"/><path class="cls-12" d="M255.98 15.12L193.96 65.2l.63-50.08h61.39z"/></g><path class="cls-1" d="M229.36 78.65A15.41 15.41 0 0 1 214 63.25V30.53a15.41 15.41 0 0 1 15.41-15.41h9.11a15.41 15.41 0 0 1 15.41 15.41v32.72a15.41 15.41 0 0 1-15.41 15.41"/><path class="cls-43" d="M257.31 265.46l-11.04 12.67 6.17 5.04 12.92-14.21-8.05-3.5zM283.62 272.28v15.27h8.4v-14.37l-8.4-.9z"/><path class="cls-47" d="M282.38 260.33h13.31l-2 15.04h-12.02l.71-15.04z"/><path class="cls-27" d="M264.28 253.64l9.9 7.75-11.02 11.71-8.45-6.18 9.57-13.28z"/><path class="cls-56" d="M282.48 284.79v17.38h24.85l-13.8-8.69v-8.69h-11.05zM287.82 279.08h5.71v5.71h-5.71zM247.78 276.73H237.5v25.44l14.94-19-4.66-6.44z"/><path class="cls-56" transform="rotate(47.19 252.594 279.141)" d="M249.74 276.31h5.71v5.71h-5.71z"/><path class="cls-57" d="M175.78 181.5l18.19 3.25 15.78-73.25"/><path class="cls-58" d="M249.68 66.67a8 8 0 0 1-10.48-.31"/><ellipse class="cls-46" cx="234.39" cy="40.87" rx="5.43" ry="2.87" transform="rotate(-15.03 234.347 40.864)"/><ellipse class="cls-46" cx="253.73" cy="40.85" rx="2.87" ry="5.43" transform="rotate(-69.03 253.725 40.848)"/><circle class="cls-54" cx="236.41" cy="51.46" r="2.67" transform="rotate(-88.32 236.42 51.46)"/><circle class="cls-54" cx="253.04" cy="51.91" r="2.67" transform="rotate(-88.3 253.108 51.775)"/></g><g id="HILL_SHRUBS"><g id="TREE-6" data-name="TREE"><path class="cls-9" d="M56.07 235.91v38.56"/><path class="cls-10" d="M88.42 149.67a39.27 39.27 0 0 0-8.64-24.93A17.8 17.8 0 0 1 76 110.55a72.47 72.47 0 0 0 1-11.65c0-21.82-9.36-39.51-20.9-39.51S35.16 77.08 35.16 98.9a72.47 72.47 0 0 0 .93 11.66 17.8 17.8 0 0 1-3.73 14.19 39.27 39.27 0 0 0-8.64 24.93A40 40 0 0 0 29 169.76a18.2 18.2 0 0 1 2.12 13.37 57.21 57.21 0 0 0-1.52 13.27c0 21.82 11.85 39.51 26.47 39.51s26.47-17.69 26.47-39.51A57.21 57.21 0 0 0 81 183.13a18.2 18.2 0 0 1 2.12-13.37 40 40 0 0 0 5.3-20.09z"/><g class="cls-59"><path class="cls-12" d="M-19.82-2.63h75.89v311.19h-75.89z"/></g></g><ellipse class="cls-60" cx="580.59" cy="299.97" rx="2.33" ry="6.67"/><ellipse class="cls-60" cx="585.59" cy="303.42" rx="6.67" ry="2.33" transform="rotate(-45 585.582 303.424)"/><ellipse class="cls-60" cx="575.6" cy="303.42" rx="2.33" ry="6.67" transform="rotate(-45 575.595 303.43)"/><ellipse class="cls-8" cx="457.34" cy="281" rx="2.33" ry="6.67"/><ellipse class="cls-8" cx="462.34" cy="284.45" rx="6.67" ry="2.33" transform="rotate(-45 462.343 284.451)"/><ellipse class="cls-8" cx="452.35" cy="284.45" rx="2.33" ry="6.67" transform="rotate(-45 452.344 284.453)"/><ellipse class="cls-60" cx="105.61" cy="303.51" rx="2.33" ry="6.67"/><ellipse class="cls-60" cx="110.61" cy="306.96" rx="6.67" ry="2.33" transform="rotate(-45 110.609 306.964)"/><ellipse class="cls-60" cx="100.62" cy="306.96" rx="2.33" ry="6.67" transform="rotate(-45 100.615 306.954)"/><g id="TREE_02"><path class="cls-61" d="M1067.92 346.32v-75.49"/><path class="cls-62" d="M1047.77 306.49s6-1.16 12.62 4.63a13.92 13.92 0 0 1 4.75 13.2s-9.26.93-13.89-5.9-3.48-11.93-3.48-11.93z"/><g class="cls-63"><path class="cls-12" d="M1045.34 304.18l21.42 22.23-2.55-26.05-18.87 3.82z"/></g><path class="cls-62" d="M1047.77 286.3s6-1.16 12.62 4.63a13.92 13.92 0 0 1 4.75 13.2s-9.26.93-13.89-5.9-3.48-11.93-3.48-11.93z"/><g class="cls-64"><path class="cls-12" d="M1045.34 283.98l21.42 22.23-2.55-26.05-18.87 3.82z"/></g><path class="cls-62" d="M1048.83 268.2s5.66-1.09 11.86 4.35a13.09 13.09 0 0 1 4.46 12.4s-8.7.87-13.06-5.55-3.26-11.2-3.26-11.2z"/><g class="cls-65"><path class="cls-12" d="M1046.55 266.03l20.13 20.89-2.4-24.48-17.73 3.59z"/></g><path class="cls-62" d="M1067.92 248.37s4.83 3.14 5.52 11.36a13.09 13.09 0 0 1-5.39 12s-6.87-5.41-5.56-13.05 5.43-10.31 5.43-10.31z"/><g class="cls-66"><path class="cls-12" d="M1067.79 245.21v29.02l15.26-19.3-15.26-9.72z"/></g><path class="cls-62" d="M1088.2 306.49s-6-1.16-12.62 4.63a13.92 13.92 0 0 0-4.75 13.2s9.26.93 13.89-5.9 3.48-11.93 3.48-11.93z"/><g class="cls-67"><path class="cls-12" d="M1090.64 304.18l-21.42 22.23 2.54-26.05 18.88 3.82z"/></g><path class="cls-62" d="M1088.2 286.3s-6-1.16-12.62 4.63a13.92 13.92 0 0 0-4.75 13.2s9.26.93 13.89-5.9 3.48-11.93 3.48-11.93z"/><g class="cls-68"><path class="cls-12" d="M1090.64 283.98l-21.42 22.23 2.54-26.05 18.88 3.82z"/></g><path class="cls-62" d="M1087.14 268.2s-5.66-1.09-11.86 4.35a13.09 13.09 0 0 0-4.46 12.4s8.7.87 13.06-5.55 3.26-11.2 3.26-11.2z"/><g class="cls-69"><path class="cls-12" d="M1089.43 266.03l-20.13 20.89 2.39-24.48 17.74 3.59z"/></g></g></g></g></g></g></svg>